<svg width="879" height="740" viewBox="0 0 879 740" fill="none" xmlns="http://www.w3.org/2000/svg">
<path d="M444.013 42C224.983 42 47.1761 277.169 47 567H841C840.808 277.163 663.06 42 444.038 42H444.013Z" fill="black"/>
<path d="M439.783 7.01749C222.194 7.01739 41.8674 224.399 9.1318 508.612L7.76075 508.238C4.00743 540.541 2.03798 570.802 2 601H3.64576H40.1258H839.147H875.903H877C876.956 566.983 874.897 532.781 870.417 498.14L869.046 498.514C833.247 219.286 654.758 7 439.787 7L439.783 7.01749ZM439.783 56.7626C636.708 56.7626 800.355 251.314 833.116 507.089L685.545 542.621C615.846 520.457 530.703 507.096 438.952 507.096C342.5 507.096 253.555 521.693 181.929 545.997L45.0574 516.449C75.0232 256.037 240.438 56.766 439.783 56.766V56.7626Z" fill="url(#paint0_linear_186_2)" stroke="url(#paint1_linear_186_2)" stroke-width="2.9192"/>
<path d="M199.304 331V321.144H196.808V328.504H174.472V309.688H195.912V307.128H174.472V288.696H195.912V296.056H198.408V286.2H167.24V288.696H171.848V328.504H167.24V331H199.304Z" fill="white"/>
<path d="M211.76 339.948V336.643H210.68V338.846H205.366C206.029 338.14 206.684 337.435 207.332 336.729C207.98 336.009 208.57 335.289 209.103 334.569C209.622 333.835 210.046 333.1 210.378 332.366C210.709 331.617 210.874 330.861 210.874 330.098C210.874 329.493 210.774 328.932 210.572 328.413C210.37 327.88 210.09 327.412 209.73 327.009C209.355 326.62 208.916 326.311 208.412 326.08C207.908 325.85 207.346 325.735 206.727 325.735C206.036 325.735 205.424 325.85 204.891 326.08C204.373 326.296 203.941 326.599 203.595 326.988C203.235 327.376 202.962 327.83 202.774 328.348C202.602 328.867 202.515 329.414 202.515 329.99C202.515 330.652 202.63 331.243 202.861 331.761C203.091 332.265 203.408 332.683 203.811 333.014L204.502 332.323C204.214 332.02 203.998 331.682 203.854 331.308C203.71 330.919 203.638 330.48 203.638 329.99C203.638 329.688 203.682 329.356 203.768 328.996C203.869 328.636 204.034 328.291 204.265 327.96C204.495 327.643 204.805 327.376 205.194 327.16C205.582 326.944 206.094 326.836 206.727 326.836C207.03 326.836 207.354 326.901 207.699 327.031C208.059 327.146 208.39 327.34 208.693 327.614C208.995 327.888 209.24 328.248 209.427 328.694C209.629 329.14 209.73 329.695 209.73 330.357C209.73 331.034 209.528 331.754 209.125 332.517C208.736 333.266 208.21 334.036 207.548 334.828C206.9 335.635 206.144 336.47 205.28 337.334C204.43 338.184 203.552 339.055 202.645 339.948H211.76Z" fill="white"/>
<path d="M357.504 187C362.027 187 365.845 186.317 368.96 184.952C372.117 183.544 374.677 181.752 376.64 179.576C378.603 177.4 380.011 174.989 380.864 172.344C381.76 169.699 382.208 167.117 382.208 164.6C382.208 161.187 381.611 158.093 380.416 155.32C379.221 152.547 377.6 150.179 375.552 148.216C373.504 146.296 371.115 144.824 368.384 143.8C365.653 142.733 362.752 142.2 359.68 142.2H346.24V144.696H350.272V184.44H346.24V187H357.504ZM352.896 144.696H359.68C362.411 144.696 364.971 145.165 367.36 146.104C369.792 147.043 371.925 148.365 373.76 150.072C375.595 151.821 377.024 153.933 378.048 156.408C379.115 158.84 379.648 161.571 379.648 164.6C379.648 167.117 379.2 169.571 378.304 171.96C377.451 174.307 376.149 176.397 374.4 178.232C372.651 180.109 370.432 181.624 367.744 182.776C365.099 183.885 362.005 184.44 358.464 184.44H352.896V144.696Z" fill="white"/>
<path d="M394.186 195.013C394.604 194.61 394.935 194.134 395.18 193.587C395.425 193.026 395.547 192.428 395.547 191.794C395.547 191.218 395.439 190.678 395.223 190.174C395.022 189.67 394.748 189.231 394.402 188.857C394.042 188.482 393.625 188.173 393.15 187.928C392.674 187.669 392.156 187.496 391.594 187.41L395.245 182.139H388.225V184.472H389.305V183.241H393.279L389.564 188.792C389.766 188.648 389.982 188.547 390.212 188.49C390.442 188.418 390.68 188.382 390.925 188.382C391.4 188.382 391.846 188.475 392.264 188.662C392.696 188.835 393.07 189.073 393.387 189.375C393.704 189.692 393.956 190.059 394.143 190.477C394.33 190.894 394.424 191.334 394.424 191.794C394.424 192.27 394.33 192.716 394.143 193.134C393.956 193.551 393.704 193.911 393.387 194.214C393.07 194.545 392.696 194.804 392.264 194.991C391.846 195.164 391.4 195.25 390.925 195.25C390.406 195.25 389.931 195.142 389.499 194.926C389.082 194.71 388.722 194.422 388.419 194.062L387.598 194.862C388.016 195.308 388.506 195.668 389.067 195.942C389.643 196.215 390.27 196.352 390.946 196.352C391.58 196.352 392.17 196.237 392.718 196.006C393.279 195.762 393.769 195.43 394.186 195.013Z" fill="white"/>
<path d="M503.736 174.44V157.928H491.832V160.424H501.112V172.904C499.747 173.629 498.296 174.184 496.76 174.568C495.224 174.952 493.624 175.144 491.96 175.144C489.187 175.144 486.584 174.611 484.152 173.544C481.72 172.435 479.608 170.963 477.816 169.128C475.981 167.336 474.531 165.203 473.464 162.728C472.397 160.253 471.864 157.629 471.864 154.856C471.864 152.04 472.397 149.395 473.464 146.92C474.531 144.403 475.981 142.227 477.816 140.392C479.651 138.515 481.784 137.043 484.216 135.976C486.648 134.867 489.272 134.312 492.088 134.312C493.965 134.312 495.757 134.568 497.464 135.08C499.213 135.549 500.835 136.253 502.328 137.192L503.8 135.016C502.051 133.992 500.195 133.203 498.232 132.648C496.312 132.093 494.264 131.816 492.088 131.816C488.931 131.816 485.965 132.435 483.192 133.672C480.419 134.867 478.008 136.488 475.96 138.536C473.869 140.627 472.227 143.08 471.032 145.896C469.837 148.669 469.24 151.635 469.24 154.792C469.24 157.949 469.837 160.915 471.032 163.688C472.227 166.461 473.869 168.872 475.96 170.92C478.008 173.011 480.419 174.653 483.192 175.848C485.965 177.043 488.931 177.64 492.088 177.64C494.264 177.64 496.312 177.363 498.232 176.808C500.195 176.211 502.029 175.421 503.736 174.44Z" fill="white"/>
<path d="M517.186 179.048C517.604 178.645 517.935 178.169 518.18 177.622C518.425 177.061 518.547 176.463 518.547 175.829C518.547 175.253 518.439 174.713 518.223 174.209C518.022 173.705 517.748 173.266 517.402 172.892C517.042 172.517 516.625 172.208 516.15 171.963C515.674 171.704 515.156 171.531 514.594 171.445L518.245 166.174H511.225V168.507H512.305V167.276H516.279L512.564 172.827C512.766 172.683 512.982 172.582 513.212 172.525C513.442 172.453 513.68 172.417 513.925 172.417C514.4 172.417 514.846 172.51 515.264 172.697C515.696 172.87 516.07 173.108 516.387 173.41C516.704 173.727 516.956 174.094 517.143 174.512C517.33 174.929 517.424 175.369 517.424 175.829C517.424 176.305 517.33 176.751 517.143 177.169C516.956 177.586 516.704 177.946 516.387 178.249C516.07 178.58 515.696 178.839 515.264 179.026C514.846 179.199 514.4 179.285 513.925 179.285C513.406 179.285 512.931 179.177 512.499 178.961C512.082 178.745 511.722 178.457 511.419 178.097L510.598 178.897C511.016 179.343 511.506 179.703 512.067 179.977C512.643 180.25 513.27 180.387 513.946 180.387C514.58 180.387 515.17 180.272 515.718 180.041C516.279 179.797 516.769 179.465 517.186 179.048Z" fill="white"/>
<path d="M599.536 236C601.285 236 602.992 235.765 604.656 235.296C606.363 234.784 607.877 234.037 609.2 233.056C610.437 232.117 611.44 230.944 612.208 229.536C613.019 228.085 613.424 226.4 613.424 224.48C613.424 222.944 613.168 221.557 612.656 220.32C612.144 219.083 611.44 217.995 610.544 217.056C609.648 216.117 608.603 215.349 607.408 214.752C606.256 214.155 605.061 213.728 603.824 213.472C606.512 212.747 608.496 211.381 609.776 209.376C611.099 207.371 611.76 205.045 611.76 202.4C611.76 200.437 611.44 198.752 610.8 197.344C610.16 195.893 609.243 194.72 608.048 193.824C606.896 192.928 605.488 192.267 603.824 191.84C602.16 191.413 600.347 191.2 598.384 191.2H584.24V193.696H588.144V233.504H584.24V236H599.536ZM590.768 214.752H598.192C599.813 214.752 601.371 214.944 602.864 215.328C604.4 215.712 605.765 216.288 606.96 217.056C608.112 217.781 609.029 218.763 609.712 220C610.437 221.195 610.8 222.624 610.8 224.288C610.8 225.824 610.48 227.168 609.84 228.32C609.243 229.472 608.432 230.411 607.408 231.136C606.341 231.947 605.104 232.544 603.696 232.928C602.331 233.312 600.859 233.504 599.28 233.504H590.768V214.752ZM590.768 193.696H598.96C600.453 193.696 601.797 193.867 602.992 194.208C604.229 194.549 605.296 195.061 606.192 195.744C607.131 196.427 607.856 197.344 608.368 198.496C608.88 199.648 609.136 201.013 609.136 202.592C609.136 205.493 608.24 207.84 606.448 209.632C604.699 211.381 602.288 212.256 599.216 212.256H590.768V193.696Z" fill="white"/>
<path d="M621.186 239.834C621.604 239.43 621.935 238.955 622.18 238.408C622.425 237.846 622.547 237.249 622.547 236.615C622.547 236.039 622.439 235.499 622.223 234.995C622.022 234.491 621.748 234.052 621.402 233.678C621.042 233.303 620.625 232.994 620.15 232.749C619.674 232.49 619.156 232.317 618.594 232.23L622.245 226.96H615.225V229.293H616.305V228.062H620.279L616.564 233.613C616.766 233.469 616.982 233.368 617.212 233.31C617.442 233.238 617.68 233.202 617.925 233.202C618.4 233.202 618.846 233.296 619.264 233.483C619.696 233.656 620.07 233.894 620.387 234.196C620.704 234.513 620.956 234.88 621.143 235.298C621.33 235.715 621.424 236.154 621.424 236.615C621.424 237.09 621.33 237.537 621.143 237.954C620.956 238.372 620.704 238.732 620.387 239.034C620.07 239.366 619.696 239.625 619.264 239.812C618.846 239.985 618.4 240.071 617.925 240.071C617.406 240.071 616.931 239.963 616.499 239.747C616.082 239.531 615.722 239.243 615.419 238.883L614.598 239.682C615.016 240.129 615.506 240.489 616.067 240.762C616.643 241.036 617.27 241.173 617.946 241.173C618.58 241.173 619.17 241.058 619.718 240.827C620.279 240.582 620.769 240.251 621.186 239.834Z" fill="white"/>
<path d="M283.696 566.32C282.117 566.32 280.763 566.064 279.632 565.552C278.501 565.019 277.627 564.272 277.008 563.312C276.389 562.331 276.08 561.168 276.08 559.824H279.504C279.504 560.891 279.877 561.733 280.624 562.352C281.371 562.949 282.405 563.248 283.728 563.248C284.965 563.248 285.936 562.949 286.64 562.352C287.344 561.755 287.696 560.933 287.696 559.888C287.696 559.013 287.451 558.256 286.96 557.616C286.491 556.976 285.808 556.539 284.912 556.304L281.968 555.44C280.261 554.949 278.939 554.117 278 552.944C277.083 551.749 276.624 550.331 276.624 548.688C276.624 547.408 276.912 546.288 277.488 545.328C278.064 544.368 278.885 543.621 279.952 543.088C281.019 542.555 282.277 542.288 283.728 542.288C285.861 542.288 287.568 542.864 288.848 544.016C290.149 545.168 290.811 546.715 290.832 548.656H287.376C287.376 547.632 287.045 546.832 286.384 546.256C285.744 545.659 284.837 545.36 283.664 545.36C282.533 545.36 281.648 545.637 281.008 546.192C280.368 546.725 280.048 547.483 280.048 548.464C280.048 549.339 280.283 550.096 280.752 550.736C281.243 551.376 281.936 551.824 282.832 552.08L285.808 552.976C287.515 553.445 288.827 554.277 289.744 555.472C290.661 556.667 291.12 558.096 291.12 559.76C291.12 561.061 290.811 562.213 290.192 563.216C289.573 564.197 288.709 564.965 287.6 565.52C286.491 566.053 285.189 566.32 283.696 566.32ZM303.94 566V545.808H297.7V542.608H313.636V545.808H307.396V566H303.94ZM319.511 566L325.463 542.64H330.007L335.959 566H332.471L331.063 560.08H324.439L323.031 566H319.511ZM325.079 557.232H330.391L328.791 550.48C328.514 549.285 328.279 548.251 328.087 547.376C327.916 546.48 327.799 545.872 327.735 545.552C327.671 545.872 327.554 546.48 327.383 547.376C327.212 548.251 326.978 549.275 326.679 550.448L325.079 557.232ZM342.794 566V542.64H347.146L353.962 562.064C353.92 561.445 353.867 560.709 353.802 559.856C353.738 559.003 353.685 558.117 353.642 557.2C353.621 556.283 353.611 555.451 353.611 554.704V542.64H356.811V566H352.458L345.674 546.576C345.717 547.131 345.76 547.824 345.802 548.656C345.866 549.488 345.909 550.352 345.93 551.248C345.973 552.144 345.994 552.976 345.994 553.744V566H342.794ZM364.926 566V542.64H371.454C372.99 542.64 374.323 542.939 375.454 543.536C376.585 544.112 377.459 544.933 378.078 546C378.718 547.067 379.038 548.325 379.038 549.776V558.832C379.038 560.261 378.718 561.52 378.078 562.608C377.459 563.696 376.585 564.539 375.454 565.136C374.323 565.712 372.99 566 371.454 566H364.926ZM368.382 562.864H371.454C372.734 562.864 373.737 562.512 374.462 561.808C375.209 561.083 375.582 560.091 375.582 558.832V549.776C375.582 548.539 375.209 547.568 374.462 546.864C373.737 546.139 372.734 545.776 371.454 545.776H368.382V562.864ZM385.714 566L391.666 542.64H396.21L402.162 566H398.674L397.266 560.08H390.642L389.234 566H385.714ZM391.282 557.232H396.594L394.994 550.48C394.716 549.285 394.482 548.251 394.29 547.376C394.119 546.48 394.002 545.872 393.938 545.552C393.874 545.872 393.756 546.48 393.586 547.376C393.415 548.251 393.18 549.275 392.882 550.448L391.282 557.232ZM409.093 566V542.64H416.421C417.893 542.64 419.173 542.928 420.261 543.504C421.349 544.059 422.192 544.848 422.789 545.872C423.408 546.896 423.717 548.101 423.717 549.488C423.717 551.045 423.312 552.4 422.501 553.552C421.712 554.683 420.634 555.483 419.269 555.952L424.037 566H420.101L415.845 556.4H412.549V566H409.093ZM412.549 553.36H416.421C417.573 553.36 418.49 553.019 419.173 552.336C419.856 551.632 420.197 550.704 420.197 549.552C420.197 548.357 419.856 547.419 419.173 546.736C418.49 546.053 417.573 545.712 416.421 545.712H412.549V553.36ZM431.129 566V542.64H437.657C439.193 542.64 440.526 542.939 441.657 543.536C442.787 544.112 443.662 544.933 444.281 546C444.921 547.067 445.241 548.325 445.241 549.776V558.832C445.241 560.261 444.921 561.52 444.281 562.608C443.662 563.696 442.787 564.539 441.657 565.136C440.526 565.712 439.193 566 437.657 566H431.129ZM434.585 562.864H437.657C438.937 562.864 439.939 562.512 440.665 561.808C441.411 561.083 441.785 560.091 441.785 558.832V549.776C441.785 548.539 441.411 547.568 440.665 546.864C439.939 546.139 438.937 545.776 437.657 545.776H434.585V562.864ZM480.479 566V545.808H474.239V542.608H490.175V545.808H483.935V566H480.479ZM504.275 566.32C502.035 566.32 500.307 565.712 499.091 564.496C497.875 563.259 497.267 561.584 497.267 559.472V542.64H500.723V559.472C500.723 560.645 501.011 561.573 501.587 562.256C502.184 562.939 503.08 563.28 504.275 563.28C505.448 563.28 506.334 562.939 506.931 562.256C507.528 561.573 507.827 560.645 507.827 559.472V542.64H511.283V559.472C511.283 561.584 510.675 563.259 509.459 564.496C508.243 565.712 506.515 566.32 504.275 566.32ZM519.335 566V542.64H523.687L530.503 562.064C530.46 561.445 530.407 560.709 530.343 559.856C530.279 559.003 530.225 558.117 530.183 557.2C530.161 556.283 530.151 555.451 530.151 554.704V542.64H533.351V566H528.999L522.215 546.576C522.257 547.131 522.3 547.824 522.343 548.656C522.407 549.488 522.449 550.352 522.471 551.248C522.513 552.144 522.535 552.976 522.535 553.744V566H519.335ZM541.946 566V562.928H546.65V545.712H541.946V542.64H554.874V545.712H550.17V562.928H554.874V566H541.946ZM563.47 566V542.64H567.822L574.638 562.064C574.595 561.445 574.542 560.709 574.478 559.856C574.414 559.003 574.36 558.117 574.318 557.2C574.296 556.283 574.286 555.451 574.286 554.704V542.64H577.486V566H573.134L566.35 546.576C566.392 547.131 566.435 547.824 566.478 548.656C566.542 549.488 566.584 550.352 566.606 551.248C566.648 552.144 566.67 552.976 566.67 553.744V566H563.47ZM592.673 566.32C591.222 566.32 589.953 566.053 588.865 565.52C587.798 564.965 586.966 564.176 586.369 563.152C585.793 562.107 585.505 560.891 585.505 559.504V549.136C585.505 547.728 585.793 546.512 586.369 545.488C586.966 544.464 587.798 543.685 588.865 543.152C589.953 542.597 591.222 542.32 592.673 542.32C594.124 542.32 595.382 542.597 596.449 543.152C597.516 543.707 598.337 544.496 598.913 545.52C599.51 546.523 599.809 547.728 599.809 549.136H596.353C596.353 547.92 596.033 546.992 595.393 546.352C594.753 545.712 593.846 545.392 592.673 545.392C591.5 545.392 590.582 545.712 589.921 546.352C589.281 546.992 588.961 547.909 588.961 549.104V559.504C588.961 560.699 589.281 561.627 589.921 562.288C590.582 562.949 591.5 563.28 592.673 563.28C593.846 563.28 594.753 562.949 595.393 562.288C596.033 561.627 596.353 560.699 596.353 559.504V556.88H592.001V553.84H599.809V559.504C599.809 560.891 599.51 562.096 598.913 563.12C598.337 564.144 597.516 564.933 596.449 565.488C595.382 566.043 594.124 566.32 592.673 566.32Z" fill="black"/>
<path d="M274 571.76H602.145V573.36H274V571.76Z" fill="black"/>
<path d="M689.304 328V318.144H686.808V325.504H664.472V306.688H685.912V304.128H664.472V285.696H685.912V293.056H688.408V283.2H657.24V285.696H661.848V325.504H657.24V328H689.304Z" fill="white"/>
<path d="M707.498 340V338.92H705.705V336.047H707.8V334.946H705.705V325.787L697.799 336.047H704.56V338.92H702.94V340H707.498ZM704.56 329.092V334.946H700.089L704.56 329.092Z" fill="white"/>
<path d="M254.592 243V240.504H249.856C251.179 237.432 252.373 234.637 253.44 232.12C254.507 229.603 255.68 226.808 256.96 223.736H275.008C276.203 226.552 277.376 229.347 278.528 232.12C279.723 234.893 280.917 237.688 282.112 240.504H277.44V243H289.728V240.504H284.8C281.643 233.037 278.485 225.656 275.328 218.36C272.213 211.021 269.099 203.619 265.984 196.152C262.869 203.619 259.733 211.021 256.576 218.36C253.419 225.656 250.283 233.037 247.168 240.504H242.24V243H254.592ZM265.344 203.832C265.472 203.491 265.579 203.192 265.664 202.936C265.792 202.68 265.899 202.36 265.984 201.976L266.56 203.832L273.92 221.24H258.048C259.243 218.381 260.459 215.501 261.696 212.6C262.976 209.656 264.192 206.733 265.344 203.832Z" fill="white"/>
<path d="M306.26 254.387V251.082H305.18V253.285H299.866C300.529 252.58 301.184 251.874 301.832 251.169C302.48 250.449 303.07 249.729 303.603 249.009C304.122 248.274 304.546 247.54 304.878 246.805C305.209 246.057 305.374 245.301 305.374 244.537C305.374 243.933 305.274 243.371 305.072 242.853C304.87 242.32 304.59 241.852 304.23 241.449C303.855 241.06 303.416 240.75 302.912 240.52C302.408 240.289 301.846 240.174 301.227 240.174C300.536 240.174 299.924 240.289 299.391 240.52C298.873 240.736 298.441 241.038 298.095 241.427C297.735 241.816 297.462 242.269 297.274 242.788C297.102 243.306 297.015 243.853 297.015 244.429C297.015 245.092 297.13 245.682 297.361 246.201C297.591 246.705 297.908 247.122 298.311 247.453L299.002 246.762C298.714 246.46 298.498 246.121 298.354 245.747C298.21 245.358 298.138 244.919 298.138 244.429C298.138 244.127 298.182 243.796 298.268 243.436C298.369 243.076 298.534 242.73 298.765 242.399C298.995 242.082 299.305 241.816 299.694 241.6C300.082 241.384 300.594 241.276 301.227 241.276C301.53 241.276 301.854 241.341 302.199 241.47C302.559 241.585 302.89 241.78 303.193 242.053C303.495 242.327 303.74 242.687 303.927 243.133C304.129 243.58 304.23 244.134 304.23 244.797C304.23 245.473 304.028 246.193 303.625 246.957C303.236 247.705 302.71 248.476 302.048 249.268C301.4 250.074 300.644 250.909 299.78 251.773C298.93 252.623 298.052 253.494 297.145 254.387H306.26Z" fill="white"/>
<path d="M157.773 295.902L124.104 273.408C122.842 272.564 122.668 271.001 123.671 269.501C124.673 268 126.183 267.562 127.446 268.406L161.115 290.9C162.377 291.744 162.551 293.306 161.548 294.807C160.546 296.307 159.036 296.745 157.773 295.902Z" fill="#F4940B"/>
<path d="M293.372 381.622L274.198 368.812C273.479 368.331 273.135 367.809 273.338 367.506C273.54 367.202 274.155 367.32 274.874 367.801L294.047 380.61C294.766 381.091 295.11 381.613 294.908 381.917C294.705 382.22 294.091 382.102 293.372 381.622Z" fill="#F4940B"/>
<path d="M267.372 364.622L248.198 351.812C247.479 351.331 247.135 350.809 247.338 350.506C247.54 350.202 248.155 350.32 248.874 350.801L268.047 363.61C268.766 364.091 269.11 364.613 268.908 364.917C268.705 365.22 268.091 365.102 267.372 364.622Z" fill="#F4940B"/>
<path d="M240.372 346.604L217.152 331.091C216.281 330.509 215.836 329.919 216.038 329.616C216.241 329.313 216.957 329.498 217.828 330.08L241.047 345.593C241.918 346.175 242.364 346.765 242.161 347.068C241.958 347.372 241.243 347.186 240.372 346.604Z" fill="#F4940B"/>
<path d="M240.372 346.604L217.152 331.091C216.281 330.509 215.836 329.919 216.038 329.616C216.241 329.313 216.957 329.498 217.828 330.08L241.047 345.593C241.918 346.175 242.364 346.765 242.161 347.068C241.958 347.372 241.243 347.186 240.372 346.604Z" fill="#F4940B"/>
<path d="M353.836 327.524L342.099 310.964C341.659 310.343 341.538 309.797 341.797 309.599C342.056 309.401 342.523 309.684 342.963 310.305L354.7 326.864C355.14 327.485 355.261 328.031 355.002 328.229C354.743 328.427 354.277 328.144 353.836 327.524Z" fill="#F4940B"/>
<path d="M337.806 305.382L326.069 288.823C325.629 288.202 325.508 287.656 325.767 287.458C326.026 287.26 326.492 287.542 326.932 288.163L338.67 304.723C339.11 305.344 339.23 305.89 338.971 306.088C338.712 306.286 338.246 306.003 337.806 305.382Z" fill="#F4940B"/>
<path d="M321.271 282.081L307.057 262.026C306.524 261.274 306.341 260.641 306.6 260.443C306.859 260.246 307.387 260.615 307.92 261.367L322.135 281.422C322.668 282.174 322.85 282.807 322.591 283.005C322.332 283.203 321.804 282.833 321.271 282.081Z" fill="#F4940B"/>
<path d="M417.227 307.142L409.406 281.57C409.113 280.611 409.187 279.892 409.591 279.773C409.995 279.654 410.46 280.214 410.753 281.173L418.574 306.746C418.867 307.705 418.793 308.423 418.389 308.542C417.985 308.661 417.52 308.101 417.227 307.142Z" fill="#F4940B"/>
<path d="M406.35 272.794L398.53 247.222C398.237 246.263 398.311 245.544 398.715 245.425C399.119 245.306 399.584 245.866 399.877 246.825L407.697 272.397C407.991 273.356 407.917 274.075 407.513 274.194C407.108 274.313 406.643 273.753 406.35 272.794Z" fill="#F4940B"/>
<path d="M395.322 236.802L385.851 205.833C385.496 204.671 385.529 203.818 385.933 203.699C386.337 203.58 386.843 204.275 387.198 205.436L396.669 236.406C397.024 237.567 396.991 238.421 396.587 238.54C396.183 238.658 395.677 237.964 395.322 236.802Z" fill="#F4940B"/>
<path d="M474.371 305.804L477.559 275.828C477.679 274.703 478.073 273.991 478.544 274.047C479.016 274.103 479.25 274.889 479.131 276.013L475.942 305.99C475.822 307.114 475.428 307.826 474.957 307.771C474.486 307.715 474.251 306.928 474.371 305.804Z" fill="#F4940B"/>
<path d="M478.268 265.375L481.456 235.398C481.576 234.274 481.97 233.562 482.441 233.617C482.913 233.673 483.147 234.46 483.028 235.584L479.839 265.56C479.72 266.685 479.326 267.397 478.854 267.341C478.383 267.285 478.148 266.499 478.268 265.375Z" fill="#F4940B"/>
<path d="M482.733 223.174L486.595 186.871C486.739 185.509 487.15 184.639 487.622 184.695C488.093 184.75 488.311 185.695 488.166 187.057L484.304 223.36C484.16 224.721 483.749 225.592 483.277 225.536C482.806 225.481 482.588 224.536 482.733 223.174Z" fill="#F4940B"/>
<path d="M544.538 338.994L556.079 316.312C556.511 315.462 557.055 315.002 557.437 315.163C557.819 315.324 557.785 315.999 557.353 316.849L545.812 339.531C545.379 340.381 544.836 340.841 544.454 340.68C544.072 340.519 544.105 339.844 544.538 338.994Z" fill="#F4940B"/>
<path d="M559.762 308.303L571.302 285.621C571.735 284.771 572.278 284.311 572.661 284.472C573.043 284.633 573.009 285.308 572.576 286.158L561.036 308.84C560.603 309.69 560.06 310.15 559.677 309.989C559.295 309.828 559.329 309.153 559.762 308.303Z" fill="#F4940B"/>
<path d="M575.988 276.366L589.965 248.898C590.489 247.868 591.093 247.289 591.475 247.45C591.857 247.611 591.763 248.405 591.239 249.435L577.262 276.904C576.738 277.934 576.134 278.513 575.752 278.352C575.37 278.191 575.464 277.397 575.988 276.366Z" fill="#F4940B"/>
<path d="M594.999 390.706L609.243 376.646C609.777 376.119 610.288 375.915 610.519 376.136C610.751 376.358 610.549 376.857 610.015 377.384L595.771 391.444C595.237 391.971 594.727 392.175 594.495 391.954C594.263 391.732 594.465 391.233 594.999 390.706Z" fill="#F4940B"/>
<path d="M613.992 371.578L628.236 357.518C628.77 356.991 629.28 356.787 629.512 357.008C629.744 357.23 629.542 357.729 629.008 358.256L614.764 372.316C614.23 372.843 613.719 373.047 613.488 372.826C613.256 372.604 613.458 372.105 613.992 371.578Z" fill="#F4940B"/>
<path d="M634.031 351.775L651.282 334.748C651.929 334.109 652.514 333.831 652.746 334.053C652.978 334.274 652.701 334.847 652.054 335.486L634.804 352.513C634.157 353.152 633.571 353.43 633.339 353.208C633.108 352.987 633.385 352.414 634.031 351.775Z" fill="#F4940B"/>
<path d="M256.037 195.708L217.414 155.679C215.966 154.178 215.866 152.341 217.164 151.088C218.463 149.835 220.295 150.001 221.743 151.502L260.366 191.532C261.814 193.033 261.914 194.869 260.615 196.122C259.317 197.375 257.485 197.21 256.037 195.708Z" fill="#F4940B"/>
<path d="M696.907 271.417L727.418 224.907C728.562 223.163 730.33 222.66 731.839 223.65C733.348 224.64 733.591 226.462 732.447 228.206L701.937 274.717C700.793 276.461 699.024 276.964 697.515 275.974C696.006 274.984 695.763 273.161 696.907 271.417Z" fill="#F4940B"/>
<path d="M357.736 129.182L341.043 76.1215C340.417 74.1317 341.148 72.4442 342.869 71.9026C344.591 71.361 346.156 72.3265 346.782 74.3163L363.474 127.377C364.1 129.367 363.37 131.055 361.648 131.596C359.927 132.138 358.362 131.172 357.736 129.182Z" fill="#F4940B"/>
<path d="M490.883 116.853L496.085 61.4725C496.28 59.3957 497.608 58.1237 499.404 58.2925C501.201 58.4612 502.269 59.9583 502.074 62.035L496.872 117.416C496.677 119.493 495.349 120.765 493.552 120.596C491.756 120.427 490.688 118.93 490.883 116.853Z" fill="#F4940B"/>
<path d="M611.183 178.572L630.117 126.269C630.827 124.308 632.432 123.41 634.129 124.024C635.826 124.638 636.484 126.355 635.774 128.317L616.84 180.62C616.13 182.581 614.525 183.479 612.828 182.865C611.131 182.251 610.473 180.533 611.183 178.572Z" fill="#F4940B"/>
<path d="M411.621 399.554L415.588 395.409L413.192 385.675L411.621 399.554Z" fill="#FFDA44"/>
<path d="M413.192 385.675L415.588 395.409L420.902 396.739L413.192 385.675Z" fill="#FFCD00"/>
<path d="M438.26 479.347L416.265 399.841C415.44 396.859 415.238 394.919 415.759 394.99C416.281 395.061 417.178 397.097 418.003 400.078L439.998 479.584C440.823 482.566 441.025 484.506 440.504 484.435C439.982 484.364 439.085 482.328 438.26 479.347Z" fill="white"/>
<path d="M442.537 475.437C422.372 475.678 406.166 489.763 406.37 506.854L479.445 505.981C479.251 488.881 462.703 475.196 442.537 475.437Z" fill="#FBFBFB"/>
<path d="M165.892 264.965L132.326 243.552C131.067 242.749 130.875 241.199 131.846 239.678C132.816 238.157 134.303 237.678 135.561 238.481L169.128 259.894C170.386 260.697 170.578 262.246 169.608 263.768C168.637 265.289 167.151 265.768 165.892 264.965Z" fill="white"/>
<path d="M177.29 247.625L144.707 224.744C143.485 223.886 143.361 222.329 144.399 220.853C145.436 219.376 146.942 218.963 148.163 219.821L180.747 242.702C181.969 243.56 182.092 245.116 181.055 246.593C180.018 248.07 178.512 248.483 177.29 247.625Z" fill="white"/>
<path d="M192.299 226.615L159.701 203.756C158.478 202.899 158.354 201.342 159.39 199.864C160.426 198.387 161.932 197.973 163.154 198.831L195.753 221.69C196.975 222.547 197.1 224.104 196.064 225.581C195.027 227.059 193.522 227.472 192.299 226.615Z" fill="white"/>
<path d="M207.516 208.393L176.219 183.781C175.046 182.858 175.007 181.297 176.123 179.878C177.238 178.46 178.764 178.129 179.938 179.052L211.234 203.665C212.408 204.588 212.446 206.149 211.331 207.567C210.215 208.986 208.689 209.316 207.516 208.393Z" fill="white"/>
<path d="M226.681 191.135L196.798 164.826C195.677 163.839 195.725 162.278 196.917 160.924C198.11 159.569 199.652 159.324 200.773 160.311L230.656 186.62C231.777 187.607 231.729 189.168 230.536 190.522C229.344 191.877 227.802 192.122 226.681 191.135Z" fill="white"/>
<path d="M258.493 159.026L237.323 125.306C236.529 124.042 237.019 122.559 238.547 121.599C240.076 120.64 241.624 120.843 242.418 122.107L263.588 155.827C264.382 157.092 263.892 158.575 262.364 159.534C260.835 160.494 259.287 160.291 258.493 159.026Z" fill="white"/>
<path d="M275.882 146.759L256.228 112.133C255.491 110.835 256.046 109.375 257.616 108.484C259.185 107.594 260.723 107.865 261.46 109.164L281.114 143.79C281.851 145.088 281.296 146.548 279.726 147.438C278.157 148.329 276.619 148.057 275.882 146.759Z" fill="white"/>
<path d="M295.906 135.749L276.23 101.136C275.492 99.8379 276.046 98.378 277.615 97.4862C279.184 96.5943 280.721 96.8651 281.459 98.1631L301.136 132.776C301.874 134.074 301.32 135.534 299.751 136.426C298.182 137.318 296.644 137.047 295.906 135.749Z" fill="white"/>
<path d="M312.858 125.549L295.109 89.9089C294.444 88.5724 295.077 87.1451 296.692 86.3406C298.308 85.5361 299.828 85.8907 300.494 87.2272L318.243 122.867C318.909 124.203 318.275 125.631 316.66 126.435C315.045 127.24 313.524 126.885 312.858 125.549Z" fill="white"/>
<path d="M331.73 115.233L315.984 78.6646C315.394 77.2932 316.105 75.9032 317.763 75.1895C319.42 74.4758 320.919 74.9142 321.509 76.2856L337.255 112.854C337.846 114.226 337.134 115.616 335.477 116.329C333.819 117.043 332.321 116.605 331.73 115.233Z" fill="white"/>
<path d="M513.59 105.933L520.671 66.7533C520.936 65.284 522.297 64.5185 524.073 64.8394C525.849 65.1603 526.856 66.3538 526.59 67.823L519.51 107.003C519.244 108.472 517.883 109.238 516.108 108.917C514.332 108.596 513.325 107.403 513.59 105.933Z" fill="white"/>
<path d="M536.432 113.269L545.78 74.5675C546.131 73.1162 547.534 72.4312 549.288 72.8549C551.042 73.2786 551.978 74.5286 551.628 75.9799L542.28 114.682C541.929 116.133 540.526 116.818 538.772 116.394C537.017 115.971 536.082 114.721 536.432 113.269Z" fill="white"/>
<path d="M559.515 122.879L570.749 84.6819C571.17 83.2495 572.605 82.634 574.337 83.1433C576.068 83.6525 576.941 84.9469 576.52 86.3793L565.286 124.576C564.864 126.009 563.429 126.624 561.698 126.115C559.967 125.606 559.093 124.311 559.515 122.879Z" fill="white"/>
<path d="M578.666 133.051L591.75 95.4476C592.241 94.0374 593.704 93.4927 595.409 94.0858C597.113 94.6788 597.922 96.0143 597.432 97.4244L584.347 135.028C583.857 136.438 582.393 136.983 580.689 136.39C578.984 135.797 578.175 134.461 578.666 133.051Z" fill="white"/>
<path d="M597.542 146.95L613.018 110.266C613.598 108.89 615.094 108.441 616.756 109.142C618.419 109.844 619.141 111.229 618.56 112.604L603.085 149.288C602.504 150.664 601.009 151.114 599.346 150.412C597.684 149.711 596.962 148.326 597.542 146.95Z" fill="white"/>
<path d="M630.25 171.581L650.246 137.151C650.995 135.86 652.536 135.604 654.096 136.51C655.657 137.417 656.197 138.881 655.447 140.173L635.452 174.602C634.702 175.893 633.162 176.15 631.601 175.243C630.04 174.337 629.5 172.872 630.25 171.581Z" fill="white"/>
<path d="M648.211 185.959L667.582 151.174C668.308 149.869 669.843 149.585 671.42 150.463C672.997 151.341 673.564 152.796 672.837 154.101L653.466 188.885C652.74 190.19 651.204 190.474 649.628 189.596C648.051 188.718 647.484 187.263 648.211 185.959Z" fill="white"/>
<path d="M663.406 201.835L684.297 167.941C685.08 166.67 686.627 166.454 688.163 167.401C689.699 168.348 690.201 169.827 689.418 171.098L668.526 204.991C667.743 206.262 666.196 206.478 664.66 205.531C663.124 204.585 662.622 203.106 663.406 201.835Z" fill="white"/>
<path d="M678.248 218.299L699.981 184.939C700.796 183.688 702.347 183.51 703.859 184.495C705.372 185.48 705.836 186.971 705.021 188.222L683.289 221.582C682.474 222.833 680.922 223.011 679.41 222.026C677.898 221.041 677.433 219.55 678.248 218.299Z" fill="white"/>
<path d="M691.346 234.581L712.881 201.093C713.689 199.837 715.239 199.651 716.757 200.627C718.275 201.603 718.749 203.091 717.941 204.347L696.406 237.835C695.598 239.09 694.048 239.277 692.53 238.301C691.012 237.325 690.538 235.837 691.346 234.581Z" fill="white"/>
<path d="M373.364 100.514L361.806 62.4139C361.373 60.9852 362.235 59.6834 363.962 59.1595C365.689 58.6356 367.129 59.2389 367.563 60.6676L379.121 98.7678C379.554 100.197 378.692 101.498 376.965 102.022C375.238 102.546 373.798 101.943 373.364 100.514Z" fill="white"/>
<path d="M394.599 95.5645L385.565 56.7883C385.226 55.3342 386.172 54.0918 387.929 53.6823C389.687 53.2728 391.084 53.9692 391.423 55.4233L400.458 94.1995C400.797 95.6536 399.851 96.896 398.093 97.3055C396.336 97.715 394.938 97.0186 394.599 95.5645Z" fill="white"/>
<path d="M417.126 92.528L414.2 54.7911C414.09 53.376 415.216 52.3396 417.016 52.2001C418.815 52.0605 420.087 52.911 420.197 54.3261L423.123 92.063C423.233 93.4781 422.107 94.5145 420.307 94.654C418.508 94.7936 417.236 93.9431 417.126 92.528Z" fill="white"/>
<path d="M444.453 93.5808L442.144 53.833C442.058 52.3425 443.201 51.279 445.003 51.1744C446.804 51.0698 448.063 51.9937 448.15 53.4842L450.458 93.2321C450.545 94.7226 449.401 95.7861 447.6 95.8907C445.798 95.9953 444.539 95.0714 444.453 93.5808Z" fill="white"/>
<path d="M470.051 95.5235L469.179 55.7182C469.146 54.2255 470.327 53.204 472.132 53.1645C473.936 53.125 475.16 54.0938 475.193 55.5865L476.065 95.3917C476.098 96.8844 474.917 97.9059 473.113 97.9454C471.309 97.9849 470.084 97.0162 470.051 95.5235Z" fill="white"/>
<path d="M245.883 528.536C247.309 404.554 335.348 305.046 442.524 306.279C549.699 307.511 635.426 409.018 634 533" stroke="white"/>
<path d="M268 521C269.252 412.125 348.212 324.762 444.362 325.868C540.512 326.974 617.441 416.13 616.189 525.005" stroke="white"/>
<defs>
<linearGradient id="paint0_linear_186_2" x1="-1.91842" y1="625.227" x2="939.336" y2="414.196" gradientUnits="userSpaceOnUse">
<stop stop-color="#FBFBFB"/>
<stop offset="0.17514" stop-color="#817D7D" stop-opacity="0.98824"/>
<stop offset="0.41481" stop-color="#504848" stop-opacity="0.98039"/>
<stop offset="0.62222" stop-color="#9F9696" stop-opacity="0.97255"/>
<stop offset="1" stop-color="white" stop-opacity="0.96471"/>
</linearGradient>
<linearGradient id="paint1_linear_186_2" x1="910.924" y1="557.004" x2="188.348" y2="464.599" gradientUnits="userSpaceOnUse">
<stop stop-color="#FBFBFB"/>
<stop offset="0.17514" stop-color="#817D7D" stop-opacity="0.98824"/>
<stop offset="0.41481" stop-color="#504848" stop-opacity="0.98039"/>
<stop offset="0.62222" stop-color="#9F9696" stop-opacity="0.97255"/>
<stop offset="1" stop-color="white" stop-opacity="0.96471"/>
</linearGradient>
</defs>
</svg>
